PathFileType	4	(X/Y/Z)	/Users/itak/Documents/Research/Walk-IL/dataset/trc/00249_00009.trc
DataRate	CameraRate	NumFrames	NumMarkers	Units	OrigDataRate	OrigDataStartFrame	OrigNumFrames
100.000000	100.000000	4	55	mm	100.000000	246	493
Frame#	Time	RPSI			LPSI			L3			STRN			T10			C7			CLAV			RBAK			LBAK			LSHO			LUPA			LAEL			LAOL			LWTS			LWPS			LFRA			LIFD			LHPS			LHTS			RSHO			RUPA			RAEL			RAOL			RWTS			RWPS			RFRA			RIFD			RHTS			RHPS			RBHD			LFHD			RFHD			LBHD			LHIP			RHIP			RASI			LASI			LKNE			LTHI			LANK			LTIP			LTOE			LMT1			LMT5			LHEE			RKNE			RTHI			RANK			RTIP			RTOE			RMT1			RMT5			RHEE			*53			*54			
		X1	Y1	Z1	X2	Y2	Z2	X3	Y3	Z3	X4	Y4	Z4	X5	Y5	Z5	X6	Y6	Z6	X7	Y7	Z7	X8	Y8	Z8	X9	Y9	Z9	X10	Y10	Z10	X11	Y11	Z11	X12	Y12	Z12	X13	Y13	Z13	X14	Y14	Z14	X15	Y15	Z15	X16	Y16	Z16	X17	Y17	Z17	X18	Y18	Z18	X19	Y19	Z19	X20	Y20	Z20	X21	Y21	Z21	X22	Y22	Z22	X23	Y23	Z23	X24	Y24	Z24	X25	Y25	Z25	X26	Y26	Z26	X27	Y27	Z27	X28	Y28	Z28	X29	Y29	Z29	X30	Y30	Z30	X31	Y31	Z31	X32	Y32	Z32	X33	Y33	Z33	X34	Y34	Z34	X35	Y35	Z35	X36	Y36	Z36	X37	Y37	Z37	X38	Y38	Z38	X39	Y39	Z39	X40	Y40	Z40	X41	Y41	Z41	X42	Y42	Z42	X43	Y43	Z43	X44	Y44	Z44	X45	Y45	Z45	X46	Y46	Z46	X47	Y47	Z47	X48	Y48	Z48	X49	Y49	Z49	X50	Y50	Z50	X51	Y51	Z51	X52	Y52	Z52	X53	Y53	Z53	X54	Y54	Z54	X55	Y55	Z55	

247	2.46	-591.2294311523438	1031.027954101562	-32.82200241088867	-509.3949279785156	1032.899047851562	-121.2929992675781	-544.15234375	1123.161743164062	-93.5338134765625	-355.0926208496094	1314.511474609375	77.26866912841797	-550.0606079101562	1247.901977539062	-89.36669158935547	-506.9700927734375	1509.433349609375	-51.04253387451172	-379.7925720214844	1432.10791015625	61.76197814941406	-607.61328125	1368.634765625	-40.81931304931641	-448.1327819824219	1475.030151367188	-147.5294036865234	-344.5712280273438	1479.561889648438	-129.9660797119141	-315.9070739746094	1363.087646484375	-212.1853790283203	-288.9268188476562	1154.302124023438	-232.7190246582031	-375.3146667480469	1138.771362304688	-244.1855621337891	-257.2619018554688	924.1077880859375	-123.1844635009766	-221.9977416992188	905.0640258789062	-198.8898010253906	-261.7559814453125	1046.993530273438	-227.2119903564453	-250.6038208007812	731.3447875976562	-118.3236465454102	-211.6259002685547	817.4468383789062	-180.2837524414062	-216.1474151611328	823.9558715820312	-112.1097869873047	-572.8507080078125	1474.269653320312	115.9411773681641	-632.869873046875	1410.983032226562	153.8047485351562	-681.9768676757812	1131.684692382812	164.8160247802734	-637.2833862304688	1123.886108398438	81.09549713134766	-558.912109375	918.3314819335938	242.1156005859375	-642.1519165039062	904.4549560546875	246.4233093261719	-673.9644165039062	1063.842163085938	194.0143280029297	-547.1893310546875	726.3491821289062	245.5476226806641	-545.04150390625	797.0320434570312	282.8341369628906	-617.83642578125	798.2448120117188	278.6480407714844	-510.3663940429688	1661.15234375	-0.2851772606372833	-314.7694091796875	1710.132080078125	103.5183715820312	-394.1298217773438	1703.573486328125	164.1715545654297	-378.490234375	1675.683959960938	-44.96257019042969	-340.1878662109375	973.4295654296875	-153.4407806396484	-589.0318603515625	996.2882690429688	112.9755096435547	-493.5299682617188	1041.154663085938	148.8318481445312	-297.9254150390625	1021.367553710938	-51.77779769897461	-226.5851745605469	506.6757202148438	-48.3541374206543	-245.3689880371094	646.3768310546875	-84.13278961181641	-503.9397277832031	186.7307586669922	-299.426513671875	-346.9578857421875	356.3095397949219	-169.8429870605469	-392.0365905761719	58.57167816162109	-168.3314056396484	-463.5956726074219	92.19727325439453	-160.9299774169922	-417.9584655761719	101.4760513305664	-265.5585021972656	-565.4873657226562	231.5187683105469	-277.3229064941406	-447.4096984863281	514.2145385742188	124.5425872802734	-518.490478515625	775.7052001953125	165.7257843017578	-440.3195495605469	34.95402908325195	21.35016632080078	-416.4202880859375	394.2425537109375	110.67333984375	-262.7752990722656	44.62765502929688	144.5768280029297	-269.4313354492188	42.24039459228516	74.62789916992188	-383.3618469238281	37.38329696655273	117.2494964599609	-439.6087646484375	35.10821914672852	-63.82558441162109	nan	nan	nan	nan	nan	nan	
248	2.47	-585.4730834960938	1031.93408203125	-29.34587287902832	-502.7354736328125	1033.740600585938	-116.9483413696289	-538.5045166015625	1124.231323242188	-89.01583099365234	-350.0342407226562	1315.248779296875	82.98380279541016	-545.08740234375	1248.664306640625	-84.28142547607422	-501.6454162597656	1510.234008789062	-45.48563766479492	-374.5769653320312	1432.8662109375	67.36228179931641	-602.4641723632812	1369.532470703125	-35.37898635864258	-442.8548278808594	1475.728637695312	-141.7905578613281	-339.3055114746094	1480.322631835938	-124.4115447998047	-311.3454895019531	1364.14599609375	-207.4653625488281	-285.8244323730469	1155.527221679688	-230.12451171875	-372.3275451660156	1140.494140625	-240.6896057128906	-254.0773010253906	923.7815551757812	-123.6762237548828	-220.0831909179688	905.5255737304688	-200.2053985595703	-259.2268371582031	1048.045776367188	-226.2163238525391	-247.7810211181641	730.7295532226562	-121.3930282592773	-209.734619140625	817.7066650390625	-182.9174652099609	-213.1295013427734	823.3489379882812	-114.6053237915039	-567.7306518554688	1475.234741210938	121.3287200927734	-627.7340698242188	1411.9609375	159.305419921875	-676.0177612304688	1132.433227539062	171.5086822509766	-632.351318359375	1124.496215820312	87.26907348632812	-550.1470336914062	921.0668334960938	249.6745452880859	-633.1439208984375	906.07861328125	254.4129791259766	-667.2076416015625	1064.737548828125	201.0853729248047	-535.4963989257812	729.6643676757812	254.1974487304688	-534.4205932617188	800.3357543945312	291.2855834960938	-607.2463989257812	800.4779663085938	287.3748168945312	-504.8461608886719	1662.040893554688	5.0372314453125	-309.55419921875	1710.669555664062	109.7835845947266	-389.1871948242188	1704.224853515625	170.0867767333984	-372.6265258789062	1676.365844726562	-38.98365020751953	-333.0179443359375	974.5719604492188	-146.8938598632812	-585.4022216796875	996.8289794921875	116.3760986328125	-490.1277160644531	1041.817016601562	153.5217437744141	-292.4010925292969	1022.330383300781	-44.65750503540039	-216.1001739501953	509.7704162597656	-34.95173263549805	-235.5909271240234	649.0115966796875	-73.15293121337891	-480.8267211914062	178.8953552246094	-285.0530090332031	-330.7148742675781	354.9800415039062	-156.2600250244141	-365.9971008300781	56.77048873901367	-150.7992706298828	-438.8797302246094	87.80263519287109	-144.8442687988281	-392.1529541015625	97.40184783935547	-248.9328460693359	-544.3182373046875	221.6431121826172	-264.4332885742188	-446.9210510253906	513.956787109375	125.4388656616211	-516.4884033203125	775.5189208984375	168.3569641113281	-440.3140563964844	34.97463226318359	21.26476097106934	-416.2404174804688	394.0845336914062	111.1717758178711	-262.8306579589844	44.66061019897461	144.4771423339844	-269.4483032226562	42.20347213745117	74.54524993896484	-383.3288269042969	37.39592361450195	117.1837310791016	-439.5896606445312	35.05025100708008	-63.90130233764648	nan	nan	nan	nan	nan	nan	
249	2.48	-579.7198486328125	1032.751342773438	-25.95680999755859	-496.0498657226562	1034.470458984375	-112.6653823852539	-532.8241577148438	1125.20947265625	-84.50557708740234	-345.0296630859375	1315.830322265625	88.73631286621094	-540.1614990234375	1249.273315429688	-79.2755126953125	-496.347412109375	1510.898559570312	-39.91671752929688	-369.4159240722656	1433.479736328125	73.01028442382812	-597.3611450195312	1370.273071289062	-29.99886512756348	-437.5707397460938	1476.305786132812	-136.0298767089844	-334.040771484375	1480.959106445312	-118.7936172485352	-306.744384765625	1365.1025390625	-202.6723022460938	-282.6253356933594	1156.696655273438	-227.4435882568359	-369.2074890136719	1142.138305664062	-237.15380859375	-250.8719787597656	923.3942260742188	-124.1516952514648	-218.056640625	906.0084228515625	-201.4539642333984	-256.5855102539062	1049.068969726562	-225.1314086914062	-244.9061737060547	730.1152954101562	-124.5885848999023	-207.7341613769531	818.0042114257812	-185.5384216308594	-210.0777435302734	822.725341796875	-117.1050186157227	-562.6886596679688	1476.023681640625	126.6975402832031	-622.6831665039062	1412.755126953125	164.7707977294922	-670.1347045898438	1133.001708984375	178.2000274658203	-627.363525390625	1124.921508789062	93.52650451660156	-541.423095703125	923.700439453125	257.223876953125	-624.175048828125	907.5826416015625	262.4042663574219	-660.5015258789062	1065.4697265625	208.1664886474609	-523.7747802734375	732.972900390625	262.8013305664062	-523.8014526367188	803.5792846679688	299.7242431640625	-596.6492919921875	802.6270141601562	296.1118469238281	-499.3923645019531	1662.789306640625	10.36918830871582	-304.4100646972656	1711.08154296875	116.0899276733398	-384.3197021484375	1704.748901367188	176.0362548828125	-366.8166198730469	1676.913940429688	-32.96821212768555	-325.7276916503906	975.5762329101562	-140.2977294921875	-581.7969970703125	997.28271484375	119.6587982177734	-486.7957763671875	1042.32421875	158.1528015136719	-286.9191589355469	1023.150451660156	-37.55194473266602	-206.2607421875	512.724853515625	-21.56340408325195	-226.30419921875	651.4838256835938	-62.17829513549805	-457.3855285644531	170.3799591064453	-269.8887329101562	-314.6679077148438	353.2264099121094	-142.37939453125	-339.8108215332031	54.93830108642578	-132.1934814453125	-413.9458312988281	83.20645141601562	-127.7790603637695	-366.1308898925781	93.00360107421875	-231.321044921875	-522.8237915039062	210.9208374023438	-250.9062194824219	-446.4391174316406	513.6726684570312	126.3863372802734	-514.5205688476562	775.29931640625	170.922607421875	-440.2996215820312	34.99970626831055	21.17992973327637	-415.9905090332031	393.8956909179688	111.7459716796875	-262.8575744628906	44.68515014648438	144.38427734375	-269.458251953125	42.16090774536133	74.47023773193359	-383.2963256835938	37.41294097900391	117.1263198852539	-439.5596313476562	34.99533462524414	-63.9732666015625	nan	nan	nan	nan	nan	nan	
250	2.49	-573.981201171875	1033.474975585938	-22.64255905151367	-489.3585510253906	1035.093872070312	-108.4399948120117	-527.1051635742188	1126.076049804688	-80.00572967529297	-340.0753479003906	1316.258911132812	94.53085327148438	-535.2632446289062	1249.741821289062	-74.33847808837891	-491.0675659179688	1511.434814453125	-34.32958984375	-364.3131103515625	1433.951782226562	78.71484375	-592.2877197265625	1370.864501953125	-24.67758178710938	-432.2664489746094	1476.776000976562	-130.2391967773438	-328.759033203125	1481.484008789062	-113.1007690429688	-302.0867004394531	1365.96435546875	-197.7871398925781	-279.3074645996094	1157.812744140625	-224.6343078613281	-365.9428100585938	1143.709106445312	-233.5365142822266	-247.6476135253906	922.945556640625	-124.5972747802734	-215.9064483642578	906.5137939453125	-202.6052856445312	-253.8178405761719	1050.066528320312	-223.9183349609375	-241.9984283447266	729.5009765625	-127.9123611450195	-205.6125335693359	818.344970703125	-188.1268768310547	-207.0048675537109	822.07763671875	-119.5857696533203	-557.7241821289062	1476.637939453125	132.0504150390625	-617.70947265625	1413.364990234375	170.2001953125	-664.3174438476562	1133.3896484375	184.8777160644531	-622.2052612304688	1125.163208007812	99.90769958496094	-532.7449340820312	926.2197875976562	264.7495422363281	-615.2625732421875	908.9671020507812	270.3795776367188	-653.8467407226562	1066.039916992188	215.2425842285156	-512.1000366210938	736.2421875	271.3583374023438	-513.2239990234375	806.7489624023438	308.1421813964844	-586.0755004882812	804.6910400390625	304.8442687988281	-493.9957580566406	1663.402099609375	15.72560501098633	-299.330322265625	1711.3720703125	122.4421081542969	-379.5187072753906	1705.14697265625	182.0267181396484	-361.0590515136719	1677.33349609375	-26.9088249206543	-318.3541564941406	976.4503784179688	-133.6747589111328	-578.1929931640625	997.6495361328125	122.8399353027344	-483.5187683105469	1042.687744140625	162.7209014892578	-281.4600830078125	1023.834716796875	-30.47067070007324	-197.0367889404297	515.5285034179688	-8.241861343383789	-217.5063171386719	653.777099609375	-51.24518966674805	-433.705078125	161.33154296875	-253.8732299804688	-298.8500061035156	351.0810546875	-128.1906280517578	-313.6391906738281	53.19328308105469	-112.5087356567383	-388.9159851074219	78.5443115234375	-109.7017517089844	-340.0204467773438	88.42366790771484	-212.6881561279297	-501.056640625	199.5145721435547	-236.6534729003906	-445.9267578125	513.3660888671875	127.3941497802734	-512.5321044921875	775.0477905273438	173.4424285888672	-440.2736511230469	35.02989196777344	21.09633445739746	-415.6408386230469	393.672119140625	112.4067611694336	-262.8523864746094	44.69919967651367	144.2992858886719	-269.45849609375	42.11100006103516	74.40348815917969	-383.2666320800781	37.4384651184082	117.0767059326172	-439.5263366699219	34.95069122314453	-64.04678344726562	nan	nan	nan	nan	nan	nan	
